<svg xmlns="http://www.w3.org/2000/svg" viewBox="0 0 799.8 274.8"><defs><style>.a{fill:#e8ecf7;}</style></defs><title>innovasjon-norge</title><polygon class="a" points="227.9 0 227.9 161 171.5 85.4 101.6 85.4 227.8 256.3 284.8 256.3 284.8 0 227.9 0"/><rect class="a" y="170.9" width="57" height="85.43"/><path class="a" d="M370.2,149.3V85.2h9.1v64.1Z"/><path class="a" d="M404,149.3h-8.5V105.9h8.4v6.2a14.8,14.8,0,0,1,13.3-7.5c10.4,0,15.6,7.5,15.6,17.2v27.5h-8.5V123.2c0-6-2.5-10.9-10.1-10.9S404,117.6,404,124.2Z"/><path class="a" d="M455.8,149.3h-8.5V105.9h8.3v6.2a14.9,14.9,0,0,1,13.4-7.5c10.4,0,15.5,7.5,15.5,17.2v27.5H476V123.2c0-6-2.5-10.9-10.1-10.9s-10.1,5.3-10.1,11.9Z"/><path class="a" d="M539.8,127.6c0,13.2-9.2,23.1-22.2,23.1s-22.2-9.9-22.2-23.1,9.2-23.1,22.2-23.1S539.8,114.4,539.8,127.6Zm-8.6,0c0-10.1-6.4-15.5-13.6-15.5S504,117.5,504,127.6s6.4,15.5,13.6,15.5S531.2,137.7,531.2,127.6Z"/><path class="a" d="M570.1,149.3h-8.6l-17.6-43.4h9.6l12.4,33.5,12.5-33.5h9.1Z"/><path class="a" d="M606.6,124.5l11.7-1.7c2.6-.4,3.4-1.8,3.4-3.3,0-4.2-2.8-7.8-9.4-7.8s-9.4,3.7-9.9,8.8l-8.1-1.9c.9-8.3,8.4-14.1,17.8-14.1,13,0,18.1,7.4,18.1,15.9v21.8a39.1,39.1,0,0,0,.5,7.1h-8.3a27.7,27.7,0,0,1-.5-5.8c-1.9,3-6.2,7.2-14,7.2s-14.5-6.1-14.5-13S599.1,125.6,606.6,124.5Zm15.1,6.2v-2l-13.3,2c-3.6.6-6.4,2.6-6.4,6.5s2.8,6.4,7.1,6.4C616.1,143.6,621.7,140.2,621.7,130.7Z"/><path class="a" d="M647.9,135.3c.5,4.6,4,8.2,10.1,8.2s7.4-2.7,7.4-5.8-2-4.8-5.6-5.6l-7.4-1.6c-6.8-1.5-10.9-6.1-10.9-12.3s7-13.7,15.5-13.7c11.9,0,15.7,7.8,16.6,11.7l-7.5,2.8c-.4-2.3-2.2-7.3-9.1-7.3-4.3,0-7.2,2.8-7.2,5.8s1.6,4.5,4.9,5.3l7.1,1.5c7.9,1.7,12,6.5,12,12.9s-5.1,13.5-15.9,13.5-17-7.7-17.7-12.7Z"/><path class="a" d="M686,105.9h8.5v48.5c0,7.9-4.5,13.5-12,13.5a13.9,13.9,0,0,1-5.1-.7v-7.1a13.7,13.7,0,0,0,2.8.3c4.4,0,5.8-2.4,5.8-6.4Zm4.2-22.8a6.1,6.1,0,1,1-6.1,6.1A6.1,6.1,0,0,1,690.2,83.1Z"/><path class="a" d="M750.8,127.6c0,13.2-9.3,23.1-22.3,23.1s-22.2-9.9-22.2-23.1,9.2-23.1,22.2-23.1S750.8,114.4,750.8,127.6Zm-8.7,0c0-10.1-6.3-15.5-13.6-15.5S715,117.5,715,127.6s6.3,15.5,13.5,15.5S742.1,137.7,742.1,127.6Z"/><path class="a" d="M771,149.3h-8.5V105.9h8.3v6.2a15.1,15.1,0,0,1,13.4-7.5c10.4,0,15.6,7.5,15.6,17.2v27.5h-8.5V123.2c0-6-2.6-10.9-10.2-10.9S771,117.6,771,124.2Z"/><path class="a" d="M411.5,256.3l-29.1-45.5v45.5H369.9V192.2h15.5l26.7,42.4V192.2h12.5v64.1Z"/><path class="a" d="M482.3,234.1c0,13.6-10.1,23.6-23.4,23.6s-23.3-10-23.3-23.6,10-23.6,23.3-23.6S482.3,220.3,482.3,234.1Zm-12.1,0c0-8.4-5.4-12.7-11.3-12.7s-11.3,4.3-11.3,12.7,5.5,12.6,11.3,12.6S470.2,242.5,470.2,234.1Z"/><path class="a" d="M519.8,223.8a16.5,16.5,0,0,0-3.6-.4c-6.2,0-11.5,3-11.5,12.6v20.3h-12V211.8h11.6v6.6c2.7-5.9,8.9-6.9,12.7-6.9h2.8Z"/><path class="a" d="M536.4,255.8c.8,4.9,4.7,8.5,10.4,8.5,7.6,0,11.9-3.8,11.9-12.4v-3.3c-1.8,2.9-6,5.7-12.4,5.7-11.9,0-20.7-9.1-20.7-21.6s8.5-21.7,20.7-21.7c7,0,11.1,3.1,12.6,6.1v-5.3h11.6v39.7c0,12.2-6.6,23.3-23.3,23.3-12.2,0-20.4-7.6-21.6-16.1Zm22.4-23.1c0-6.9-4.7-11.2-10.4-11.2s-10.7,4.3-10.7,11.2,4.4,11.3,10.7,11.3S558.8,239.6,558.8,232.7Z"/><path class="a" d="M623.5,243.6c-2.3,7.6-9.3,14.1-20.3,14.1s-22.9-8.8-22.9-23.8,10.5-23.4,21.8-23.4c13.8,0,22,8.7,22,23,0,1.7-.2,3.5-.2,3.7H592.1a10.9,10.9,0,0,0,11.2,10.2c5.6,0,8.7-2.9,10.1-6.8ZM612.3,229c-.2-4.4-3.1-8.8-10-8.8a9.6,9.6,0,0,0-9.9,8.8Z"/></svg>