<svg xmlns="http://www.w3.org/2000/svg" viewBox="0 0 512 512"><defs><style>.a{fill:#f19861;}</style></defs><title>instagram-icon</title><path class="a" d="M256,49.5c67.3,0,75.2.2,101.8,1.4,24.6,1.2,37.9,5.3,46.8,8.7a77.6,77.6,0,0,1,28.9,18.9,77.6,77.6,0,0,1,18.9,28.9c3.4,8.9,7.5,22.2,8.7,46.8,1.2,26.6,1.4,34.5,1.4,101.8s-.2,75.2-1.4,101.8c-1.2,24.6-5.3,37.9-8.7,46.8a84.3,84.3,0,0,1-47.8,47.8c-8.9,3.4-22.2,7.5-46.8,8.7-26.6,1.2-34.5,1.4-101.8,1.4s-75.2-.2-101.8-1.4c-24.6-1.2-37.9-5.3-46.8-8.7a77.6,77.6,0,0,1-28.9-18.9,77.6,77.6,0,0,1-18.9-28.9c-3.4-8.9-7.5-22.2-8.7-46.8-1.2-26.6-1.4-34.5-1.4-101.8s.2-75.2,1.4-101.8c1.2-24.6,5.3-37.9,8.7-46.8A77.6,77.6,0,0,1,78.5,78.5a77.6,77.6,0,0,1,28.9-18.9c8.9-3.4,22.2-7.5,46.8-8.7,26.6-1.2,34.5-1.4,101.8-1.4m0-45.4c-68.4,0-77,.3-103.9,1.5S107,11.1,91,17.3A122.8,122.8,0,0,0,46.4,46.4,122.8,122.8,0,0,0,17.3,91c-6.2,16-10.5,34.3-11.7,61.1S4.1,187.6,4.1,256s.3,77,1.5,103.9S11.1,405,17.3,421a122.8,122.8,0,0,0,29.1,44.6A122.8,122.8,0,0,0,91,494.7c16,6.2,34.3,10.5,61.1,11.7s35.5,1.5,103.9,1.5,77-.3,103.9-1.5,45.1-5.5,61.1-11.7A129.4,129.4,0,0,0,494.7,421c6.2-16,10.5-34.3,11.7-61.1s1.5-35.5,1.5-103.9-.3-77-1.5-103.9S500.9,107,494.7,91a122.8,122.8,0,0,0-29.1-44.6A122.8,122.8,0,0,0,421,17.3c-16-6.2-34.3-10.5-61.1-11.7S324.4,4.1,256,4.1Z"/><path class="a" d="M256,126.6A129.4,129.4,0,1,0,385.4,256,129.5,129.5,0,0,0,256,126.6ZM256,340a84,84,0,1,1,84-84A84,84,0,0,1,256,340Z"/><circle class="a" cx="390.5" cy="121.5" r="30.2"/></svg>