<?xml version="1.0" encoding="utf-8"?>
<!-- Generator: Adobe Illustrator 23.0.0, SVG Export Plug-In . SVG Version: 6.00 Build 0)  -->
<svg version="1.1" id="Layer_1" xmlns="http://www.w3.org/2000/svg" xmlns:xlink="http://www.w3.org/1999/xlink" x="0px" y="0px"
	 viewBox="0 0 646.7 116.8" style="enable-background:new 0 0 646.7 116.8;" xml:space="preserve">
<style type="text/css">
	.st0{fill:#92B7CE;}
	.st1{fill:#DADEE5;}
	.st2{fill:#17191C;stroke:#1D1E1C;stroke-miterlimit:10;}
	.st3{fill:#FFFFFF;stroke:#FFFFFF;stroke-miterlimit:10;}
</style>
<g>
	<g>
		<path class="st0" d="M192.8,55.7c2.9,3.3,4.4,8,4.4,14.1v2.4c0,13-6.5,19.6-19.6,19.6h-31.8c-1.6,0-2.4-0.8-2.4-2.4V25.8
			c0-1.6,0.8-2.4,2.4-2.4h29.3c13,0,19.6,6.5,19.6,19.6v2.4C194.7,49.5,194.1,52.9,192.8,55.7z M158.1,38.1v12.2h19.6
			c1.6,0,2.4-0.8,2.4-2.4v-7.3c0-1.6-0.8-2.4-2.4-2.4L158.1,38.1L158.1,38.1z M158.1,65v12.2h22c1.6,0,2.4-0.8,2.4-2.4v-7.3
			c0-1.6-0.8-2.4-2.4-2.4h-22V65z"/>
		<path class="st0" d="M209.4,23.4h9.8c1.6,0,2.4,0.8,2.4,2.4v63.6c0,1.6-0.8,2.4-2.4,2.4h-9.8c-1.6,0-2.4-0.8-2.4-2.4V25.8
			C207,24.2,207.8,23.4,209.4,23.4z"/>
		<path class="st0" d="M257.6,74.7h-11.5v14.7c0,1.6-0.8,2.4-2.4,2.4h-9.8c-1.6,0-2.4-0.8-2.4-2.4V25.8c0-1.6,0.8-2.4,2.4-2.4h31.8
			c13,0,19.6,6.5,19.6,19.6v12.2c0,9.5-3.5,15.6-10.4,18.1l12.9,18.5h-19.7L257.6,74.7z M268.1,60.1c1.6,0,2.4-0.8,2.4-2.4V40.6
			c0-1.6-0.8-2.4-2.4-2.4h-22v22L268.1,60.1L268.1,60.1z"/>
		<path class="st0" d="M348.8,72.3c0,13-6.5,19.6-19.6,19.6h-31.8c-1.6,0-2.4-0.8-2.4-2.4V25.8c0-1.6,0.8-2.4,2.4-2.4h31.8
			c13,0,19.6,6.5,19.6,19.6V72.3z M309.7,77.2h22c1.6,0,2.4-0.8,2.4-2.4V40.6c0-1.6-0.8-2.4-2.4-2.4h-22V77.2z"/>
		<path class="st0" d="M392.8,50.3c13,0,19.6,6.5,19.6,19.6v2.4c0,13-6.5,19.6-19.6,19.6H361c-1.6,0-2.4-0.8-2.4-2.4v-9.8
			c0-1.6,0.8-2.4,2.4-2.4h34.2c1.6,0,2.4-0.8,2.4-2.4v-7.3c0-1.6-0.8-2.4-2.4-2.4h-17.1c-13,0-19.6-6.5-19.6-19.6v-2.4
			c0-13,6.5-19.6,19.6-19.6h31.8c1.6,0,2.4,0.8,2.4,2.4v9.8c0,1.6-0.8,2.4-2.4,2.4h-34.2c-1.6,0-2.4,0.8-2.4,2.4v7.3
			c0,1.6,0.8,2.4,2.4,2.4L392.8,50.3L392.8,50.3z"/>
		<path class="st0" d="M488.2,23.4h9.8c1.6,0,2.4,0.8,2.4,2.4v63.6c0,1.6-0.8,2.4-2.4,2.4h-9.8c-1.6,0-2.4-0.8-2.4-2.4V25.8
			C485.7,24.2,486.5,23.4,488.2,23.4z"/>
		<path class="st0" d="M524.8,50.3h26.9c1.6,0,2.4,0.8,2.4,2.4v9.8c0,1.6-0.8,2.4-2.4,2.4h-26.9v9.8c0,1.6,0.8,2.4,2.4,2.4h34.2
			c1.6,0,2.4,0.8,2.4,2.4v9.8c0,1.6-0.8,2.4-2.4,2.4h-31.8c-13,0-19.6-6.5-19.6-19.6V42.8c0-13,6.5-19.6,19.6-19.6h31.8
			c1.6,0,2.4,0.8,2.4,2.4v9.8c0,1.6-0.8,2.4-2.4,2.4h-34.2c-1.6,0-2.4,0.8-2.4,2.4V50.3z"/>
		<path class="st0" d="M610.4,88.9c-3.1,2-7.2,2.9-12.2,2.9h-4.9c-13,0-19.6-6.5-19.6-19.6V25.8c0-1.6,0.8-2.4,2.4-2.4h9.8
			c1.6,0,2.4,0.8,2.4,2.4v48.9c0,1.6,0.8,2.4,2.4,2.4h9.8c1.6,0,2.4-0.8,2.4-2.4V25.8c0-1.6,0.8-2.4,2.4-2.4h9.8
			c1.6,0,2.4,0.8,2.4,2.4v48.9c0,1.6,0.8,2.4,2.4,2.4h9.8c1.6,0,2.4-0.8,2.4-2.4V25.8c0-1.6,0.8-2.4,2.4-2.4h9.8
			c1.6,0,2.4,0.8,2.4,2.4v46.5c0,13-6.5,19.6-19.6,19.6h-4.9C617.6,91.9,613.5,90.9,610.4,88.9z"/>
		<polygon class="st0" points="427.4,23.4 449.8,72.8 473.3,23.4 		"/>
	</g>
	<g>
		<path class="st0" d="M124.9,102.8l-12.8-21.2c8.2-19,6-41.7-7.6-59.1C84.7-3,48-7.5,22.5,12.3s-30,56.5-10.2,82
			c19.8,25.4,56.5,30,82,10.2c2.2-1.7,4.3-3.6,6.1-5.5L124.9,102.8z"/>
		<path class="st1" d="M33.8,26.7c17.5-13.6,42.7-10.5,56.4,7c13.6,17.5,10.5,42.7-7,56.4c-17.5,13.6-42.7,10.5-56.4-7
			C13.2,65.6,16.3,40.3,33.8,26.7z"/>
		<path class="st2" d="M43.3,36.9c13.1-10.2,32.1-7.9,42.3,5.2c10.2,13.1,7.9,32.1-5.2,42.3c-13.1,10.2-32.1,7.9-42.3-5.2
			C27.9,66,30.2,47.1,43.3,36.9z"/>
		<path class="st3" d="M29.7,53.4c1.7-1.3,4.2-1,5.5,0.7s1,4.2-0.7,5.5s-4.2,1-5.5-0.7S28,54.7,29.7,53.4z"/>
	</g>
</g>
</svg>
