<svg xmlns="http://www.w3.org/2000/svg" viewBox="0 0 168.3 31.9"><defs><style>.a{fill:#e8ecf7;}</style></defs><title>ntnu</title><path class="a" d="M23.6,0H7.9A7.9,7.9,0,0,0,0,7.9V23.6a7.9,7.9,0,0,0,7.9,7.9H23.6a8,8,0,0,0,7.9-7.9V7.9A7.9,7.9,0,0,0,23.6,0ZM7.9,7.9H23.6V23.6H7.9V7.9Z"/><path class="a" d="M15.7,9.2a6.5,6.5,0,1,0,6.4,6.5,6.5,6.5,0,0,0-6.4-6.5"/><polyline class="a" points="48.6 0 63.9 22.3 63.9 5.2 63.9 1.1 59.3 1.1 59.3 0 69.1 0 69.1 1.1 65.3 1.1 65.3 5.2 65.3 31.7 64.6 31.9 44 2 44 26 44.1 30.2 48.8 30.2 48.8 31.3 38.6 31.3 38.6 30.2 42.7 30.2 42.7 26 42.7 5.2 42.7 1.1 38.6 1.1 38.6 0 48.6 0"/><path class="a" d="M99.7,0V10H98.4a13.1,13.1,0,0,0-1.7-5.8c-1.6-2.7-3.8-2.8-5.9-2.9H88.3V30.2h4.8v1.1H78.6V30.2h4.8V1.3H81.3c-2.5.1-4.5.1-6.4,3A11.5,11.5,0,0,0,73.3,10H72V0H99.7"/><polyline class="a" points="112.3 0 127.6 22.3 127.6 5.2 127.6 1.1 123 1.1 123 0 132.8 0 132.8 1.1 129 1.1 129 5.2 129 31.7 128.3 31.9 107.7 2 107.7 26 107.8 30.2 112.5 30.2 112.5 31.3 102.3 31.3 102.3 30.2 106.4 30.2 106.4 26 106.4 5.2 106.4 1.1 102.3 1.1 102.3 0 112.3 0"/><path class="a" d="M150,0V1.1h-4.3V21.8c.1,4.4.1,8.5,8.4,8.5s8.8-3.6,9-7.5V1.1h-4.4V0h9.8V1.1h-3.9V21c-.1,5.8-.1,10.7-11.6,10.7-1.6,0-5.5-.1-8-1.1s-4.1-5.2-4.1-9.4V1.1h-3.9V0H150"/></svg>