<svg xmlns="http://www.w3.org/2000/svg" viewBox="0 0 401.1 131.5"><defs><style>.a{fill:#e8ecf7;}</style></defs><title>tronderenergi</title><path class="a" d="M13.4,121.1V85.7H0V79.4H34.7v6.3H21.2v35.4Z"/><path class="a" d="M32.9,101.5a21.6,21.6,0,0,1,.6-5.1,8.2,8.2,0,0,1,2.6-4.1,9.7,9.7,0,0,1,2.4-1.5A8.1,8.1,0,0,1,41,90l2.5-.4h6.8v5.3H47.4a12.5,12.5,0,0,0-3.1.4,5.1,5.1,0,0,0-2.9,1.8,7.2,7.2,0,0,0-1.3,2.8,18.7,18.7,0,0,0-.3,3.4v17.8H32.9Z"/><path class="a" d="M85.3,102.3a21.5,21.5,0,0,0-.5-3.4,23,23,0,0,0-1.2-3.4,12.9,12.9,0,0,0-2.2-3,10,10,0,0,0-2.9-1.8,13.3,13.3,0,0,0-3.4-1,13.2,13.2,0,0,0-3.4-.4H65.5a13.7,13.7,0,0,0-3.4.4,13.9,13.9,0,0,0-3.3,1,8.8,8.8,0,0,0-2.9,1.8,12.9,12.9,0,0,0-2.2,3,23,23,0,0,0-1.2,3.4,14.8,14.8,0,0,0-.5,3.5c-.1,1.2-.2,2.2-.2,3.1s.1,1.7.2,2.8a14,14,0,0,0,.5,3.4,10.6,10.6,0,0,0,1.2,3.4,8.9,8.9,0,0,0,2.2,3,11.2,11.2,0,0,0,2.9,1.9,20.7,20.7,0,0,0,3.3,1l3.4.4h6.2l3.4-.4a19.1,19.1,0,0,0,3.4-1,11.2,11.2,0,0,0,2.9-1.9,14,14,0,0,0,2.9-4.7,26.2,26.2,0,0,0,1.1-8.2C85.4,104.4,85.4,103.4,85.3,102.3Zm-26.2,1.3a17.9,17.9,0,0,1,.2-2.3,11.2,11.2,0,0,1,.6-2.3A5.9,5.9,0,0,1,61,97.1a7.5,7.5,0,0,1,1.7-1.4,8,8,0,0,1,2-.7l2.1-.4h3.8l2,.4,1.1.4L59.5,110.7c-.1-.4-.1-.7-.2-1.1a31,31,0,0,1-.2-4.2Zm19.1,1.8c0,1.4-.1,2.8-.2,4.2a6.6,6.6,0,0,1-1.9,3.9,6.3,6.3,0,0,1-3.5,2.2,18.1,18.1,0,0,1-4,.4,17.8,17.8,0,0,1-3.9-.4l-1.3-.5L77.7,99.9a3.2,3.2,0,0,1,.3,1.4,8.2,8.2,0,0,1,.2,2.2Z"/><path class="a" d="M89.4,94.4a10.9,10.9,0,0,1,.1-1.7,3.2,3.2,0,0,1,.9-1.7,3.2,3.2,0,0,1,2.4-1.3h13.5a22.9,22.9,0,0,1,4.7.4,8.5,8.5,0,0,1,4.1,2.1,9.1,9.1,0,0,1,2.2,3.1,12,12,0,0,1,.9,5.1v20.8h-6.9V102.4a15.3,15.3,0,0,0-.3-3,5.9,5.9,0,0,0-1-2.6,5.6,5.6,0,0,0-2-1.4,8.1,8.1,0,0,0-3-.5H97.3l-.6.3a.9.9,0,0,0-.3.6,2,2,0,0,0-.1.7v24.5H89.4Z"/><path class="a" d="M152,117.7a5.2,5.2,0,0,1-.7,1.8,3.6,3.6,0,0,1-2.1,1.4l-2.3.2H134.5a11.8,11.8,0,0,1-2.6-.2,10.9,10.9,0,0,1-2.8-.8,14.3,14.3,0,0,1-2.6-1.9,10.4,10.4,0,0,1-2.1-3.3,18.5,18.5,0,0,1-1-3.8,26.1,26.1,0,0,1-.5-6.2,34.4,34.4,0,0,1,.4-5.4,13.1,13.1,0,0,1,2-5.2,11.2,11.2,0,0,1,2.6-2.7,15.3,15.3,0,0,1,2.9-1.4l2.8-.5h11.7V79.4h6.9v36.2A7.5,7.5,0,0,1,152,117.7ZM137.3,94.9a11.7,11.7,0,0,0-3,.5,4.5,4.5,0,0,0-2.8,2.3,8.6,8.6,0,0,0-1,2.5,20.8,20.8,0,0,0-.4,4.9,30.2,30.2,0,0,0,.3,5.2,14.7,14.7,0,0,0,.5,1.9,7,7,0,0,0,1.3,1.9,8.2,8.2,0,0,0,1.7,1.1,4.7,4.7,0,0,0,1.7.4l1.7.2h6.5a1.3,1.3,0,0,0,.9-.4,1.3,1.3,0,0,0,.5-1.1,5.4,5.4,0,0,0,.1-1.1V94.9Z"/><path class="a" d="M168.8,121.1h-2.5a8,8,0,0,1-2.6-.5,9,9,0,0,1-2.4-1.2,7,7,0,0,1-2.1-2.1,12.2,12.2,0,0,1-2-5.3c-.2-2-.3-4.1-.3-6.2s0-2.8.1-4.1a13.6,13.6,0,0,1,.5-3.6,9.8,9.8,0,0,1,1.1-3,11.6,11.6,0,0,1,2-2.5,12.2,12.2,0,0,1,2.9-1.7,12.5,12.5,0,0,1,3.2-.8l3.1-.4h2.6a49.3,49.3,0,0,1,5.5.3,12.4,12.4,0,0,1,5,1.7,8.5,8.5,0,0,1,2.2,2,11.6,11.6,0,0,1,1.4,2.4,14,14,0,0,1,.6,2.8,15.1,15.1,0,0,1,.2,3,21.2,21.2,0,0,1-.2,2.4,4.5,4.5,0,0,1-1.3,2.3,2.7,2.7,0,0,1-1.5.9,5.8,5.8,0,0,1-1.9.3H164.1a20.2,20.2,0,0,0,.1,2.3c.1.9.2,1.5.3,2a7.5,7.5,0,0,0,1,2,4.2,4.2,0,0,0,1.6,1.1,4.1,4.1,0,0,0,1.8.5l2,.2h15.4v5.3Zm9.8-18.8c.6,0,1.1-.2,1.2-.6a2.7,2.7,0,0,0,.3-1.2,4.9,4.9,0,0,0-.6-2.5,6.1,6.1,0,0,0-1.4-1.7,7.4,7.4,0,0,0-2.9-1.2l-3.1-.2h-1.5a5,5,0,0,0-1.7.2,6.4,6.4,0,0,0-1.8.6,6.1,6.1,0,0,0-1.6,1.2,4.5,4.5,0,0,0-1.2,2.5,23,23,0,0,0-.2,2.8Z"/><path class="a" d="M192,101.5a21.6,21.6,0,0,1,.6-5.1,8.2,8.2,0,0,1,2.6-4.1,12,12,0,0,1,2.4-1.5,7.9,7.9,0,0,1,2.6-.8l2.4-.4h6.8v5.3h-2.9a11.3,11.3,0,0,0-3,.4,5,5,0,0,0-3,1.8,7.2,7.2,0,0,0-1.3,2.8,18.7,18.7,0,0,0-.3,3.4v17.8H192Z"/><path class="a" d="M220,121.1h-2.5a3.5,3.5,0,0,1-2.2-1.2,4,4,0,0,1-1.4-2.3,24.6,24.6,0,0,1-.2-2.6V85.4a6.7,6.7,0,0,1,.4-2.4,9.3,9.3,0,0,1,1-2,4.1,4.1,0,0,1,2.4-1.3l2.6-.3h25.3v6.3H223.3a1.6,1.6,0,0,0-1.1.5,1.4,1.4,0,0,0-.5,1,3.8,3.8,0,0,0-.1,1v8.4H242V103H221.6v9.7a1.8,1.8,0,0,0,.6,1.6c.2.3.5.4,1,.5h22.5v6.2Z"/><path class="a" d="M250.6,94.4a10.9,10.9,0,0,1,.1-1.7,3.2,3.2,0,0,1,.9-1.7,3.2,3.2,0,0,1,2.4-1.3h13.5a22.9,22.9,0,0,1,4.7.4,8.5,8.5,0,0,1,4.1,2.1,9.1,9.1,0,0,1,2.2,3.1,12,12,0,0,1,.9,5.1v20.8h-6.9V102.4a15.3,15.3,0,0,0-.3-3,5.9,5.9,0,0,0-1-2.6,5.6,5.6,0,0,0-2-1.4,8.1,8.1,0,0,0-3-.5h-7.7l-.6.3a.9.9,0,0,0-.3.6,2,2,0,0,0-.1.7v24.5h-6.9Z"/><path class="a" d="M296,121.1h-2.5a8,8,0,0,1-2.6-.5,9,9,0,0,1-2.4-1.2,8.6,8.6,0,0,1-2.2-2.1,13.5,13.5,0,0,1-1.9-5.3c-.2-2-.3-4.1-.3-6.2s0-2.8.1-4.1a13.6,13.6,0,0,1,.5-3.6,9.8,9.8,0,0,1,1.1-3,11.6,11.6,0,0,1,2-2.5,12.2,12.2,0,0,1,2.9-1.7,12.5,12.5,0,0,1,3.2-.8l3.1-.4h2.6a49.3,49.3,0,0,1,5.5.3,11.5,11.5,0,0,1,4.9,1.7,7.6,7.6,0,0,1,2.3,2,8,8,0,0,1,1.3,2.4,9.6,9.6,0,0,1,.7,2.8,15.1,15.1,0,0,1,.2,3,21.2,21.2,0,0,1-.2,2.4,4.5,4.5,0,0,1-1.3,2.3,2.9,2.9,0,0,1-1.6.9,4.8,4.8,0,0,1-1.8.3H291.3a20.2,20.2,0,0,0,.1,2.3c.1.9.2,1.5.3,2a5.4,5.4,0,0,0,1,2,4.2,4.2,0,0,0,1.6,1.1,4.1,4.1,0,0,0,1.8.5l2,.2h15.4v5.3Zm9.8-18.8c.6,0,1.1-.2,1.2-.6a2.7,2.7,0,0,0,.3-1.2,4.9,4.9,0,0,0-.6-2.5,6.1,6.1,0,0,0-1.4-1.7,8.1,8.1,0,0,0-2.9-1.2l-3.1-.2h-1.5a4.7,4.7,0,0,0-1.7.2,6.4,6.4,0,0,0-1.8.6,6.1,6.1,0,0,0-1.6,1.2,4.5,4.5,0,0,0-1.2,2.5,23,23,0,0,0-.2,2.8Z"/><path class="a" d="M319.2,101.5a21.6,21.6,0,0,1,.6-5.1,8.2,8.2,0,0,1,2.6-4.1,12,12,0,0,1,2.4-1.5,8.1,8.1,0,0,1,2.5-.8l2.5-.4h6.8v5.3h-2.9a11.3,11.3,0,0,0-3,.4,5,5,0,0,0-3,1.8,7.2,7.2,0,0,0-1.3,2.8,18.7,18.7,0,0,0-.3,3.4v17.8h-6.9Z"/><path class="a" d="M350.1,121.1h-2.5a10.1,10.1,0,0,1-2.5-.5,9,9,0,0,1-2.4-1.2,7.4,7.4,0,0,1-2.1-2.2c-1.6-2.6-2.4-6.6-2.4-12.2a33.3,33.3,0,0,1,.6-6.7,10.9,10.9,0,0,1,2.7-5.2,8,8,0,0,1,2.3-1.9,7.7,7.7,0,0,1,2.5-1,10.1,10.1,0,0,1,2.5-.4h15.3a6.4,6.4,0,0,1,2.4,1.1,4.6,4.6,0,0,1,1.5,2.3,10.4,10.4,0,0,1,.3,2.3v22.2a24.8,24.8,0,0,1-.5,5.6,9.3,9.3,0,0,1-2,4.5,7.5,7.5,0,0,1-2.6,2.1,12.1,12.1,0,0,1-3,1.1,13.7,13.7,0,0,1-2.8.5h-17v-5.3h13.2l2.9-.2a7.9,7.9,0,0,0,3-1.2,6.2,6.2,0,0,0,1.8-3.7Zm11.3-23.7a3.6,3.6,0,0,0-.2-1.1,1.8,1.8,0,0,0-.7-.9l-.9-.4h-6.9a10.7,10.7,0,0,0-3.2.5,6.1,6.1,0,0,0-2.2,1.5,4.3,4.3,0,0,0-1.1,2,12.9,12.9,0,0,0-.6,2.5,19.4,19.4,0,0,0-.2,2.4v1.6c0,1.4,0,2.6.1,3.6a24.2,24.2,0,0,0,.5,2.4,9.1,9.1,0,0,0,.6,1.6,3.6,3.6,0,0,0,.5.9,4.5,4.5,0,0,0,2.8,1.6l3.2.3h8.3Z"/><path class="a" d="M374.5,85V79.4h7V85Zm0,4.6h7v31.5h-7Z"/><path class="a" d="M393.2,92.1l-1.3-.2-1.2-.5-1.1-1a4.1,4.1,0,0,1-.7-1.1,5,5,0,0,1-.3-1.3,5,5,0,0,1-.2-1.2V84.5a6.9,6.9,0,0,1,.2-1.3,9.3,9.3,0,0,1,.4-1.3,4.4,4.4,0,0,1,.8-1.1,4.7,4.7,0,0,1,1.2-.9l1.2-.4,1.3-.2h3.6l1.1.4a2.4,2.4,0,0,1,1.1.6,4.7,4.7,0,0,1,.9,1.2,3.1,3.1,0,0,1,.6,1.3,5.9,5.9,0,0,1,.2,1.4,9.2,9.2,0,0,1,0,2.7,6.8,6.8,0,0,1-.2,1.4,5,5,0,0,1-.5,1.3,2.4,2.4,0,0,1-.9,1.1,2.5,2.5,0,0,1-1.2.8l-1.4.4h-3.6Zm2.1-1h1.1l1.1-.3.9-.5a2.4,2.4,0,0,0,.8-.9,4.9,4.9,0,0,0,.4-1.1,5.1,5.1,0,0,0,.2-1.3,4.5,4.5,0,0,0,.1-1.1v-.9c-.1-.4-.1-.7-.2-1.1a3.6,3.6,0,0,0-.2-1,3.1,3.1,0,0,0-.5-1l-.9-.8-1-.5H394l-1.1.2a2.3,2.3,0,0,0-1.1.3,2.7,2.7,0,0,0-1,.6,6.1,6.1,0,0,0-.7,1,4.5,4.5,0,0,0-.3,1.1,4.3,4.3,0,0,0-.2,1.1v1a12.1,12.1,0,0,0,.1,1.9,2.8,2.8,0,0,0,.6,1.8,2.7,2.7,0,0,0,.8,1l1.1.5,1.1.3h2Zm-3.7-1.9V82.6l.2-.3.4-.2h4.4a.9.9,0,0,1,.6.3,1.5,1.5,0,0,1,.6.9,4.5,4.5,0,0,1,.1,1.1,3.7,3.7,0,0,1-.2,1.2,1.6,1.6,0,0,1-.4.7l-.5.2h-1.2l2.7,2.7h-1.6l-2.4-2.4-.3-.3c-.1-.1-.1-.2-.1-.5s.1-.4.2-.4h2.3c.2-.1.2-.3.2-.5v-1a1.3,1.3,0,0,0-.1-.6l-.4-.2h-3.2c-.1,0-.1.1-.1.2v5.9Z"/><path class="a" d="M258.9,35.5c-4.4,14.3-23,16.3-35.4,4.3-.1-.1-.2-.1-.2-.2l-10-9.2c-1.8-1.5-20.6-19.3-24.5-22.6s-19.5-14.7-36.2-2c-6.9,5.2-11.6,13-12,24.2a.1.1,0,0,0,.1-.1c1.1-14.5,12.8-17.9,18-17.9,9.3,0,18,7.5,18,7.5l1.5,1.3,8.9,8.2c1.8,1.5,20.5,19.4,24.5,22.6s19.3,14.5,36.2,2a30.8,30.8,0,0,0,11.1-18.2Z"/><path class="a" d="M198,43.2l-11.6-11c-.3-.3-.4-.3-.8,0-3.3,3.1-5.4,5-9.1,8-8.4,6.8-25.5,12.2-31-.3,3.2,8.7,11.3,18.6,24.8,19.4h.3a28.2,28.2,0,0,0,14.8-4.7c4.3-2.7,6.7-5.1,12.6-10.7A.4.4,0,0,0,198,43.2Z"/><path class="a" d="M174.9,18.1c-4.7-3.4-20.1-8.5-28.3,4a17.3,17.3,0,0,0-2.7,7.9h-3.3c1.1-14.6,12.9-18,18.1-18S170.9,15.3,174.9,18.1Z"/><path class="a" d="M223.5,39.8c12.3,12.1,31,10,35.4-4.3.6-1.8-2.1-3.2-3.3-.4C252.9,42.1,240.3,53.1,223.5,39.8Z"/><path class="a" d="M255.6,24.5C254,8.1,241.6.7,232.6.1H234c-5.5-.5-11.8,1-18.2,5.2-4,2.6-6.9,5.2-12.8,10.6-.2.3-.5.5-.1.8l11.6,10.9c.3.3.5.3.7,0,3.3-3,5.5-5,9.2-8,9.1-7.3,27.1-13.2,31.2,5.1Z"/><path class="a" d="M259,24.5c.1,2.4-3.2,2.7-3.4,0C254,8.1,241.6.7,232.6.1,243.1.3,257.1,7.8,259,24.5Z"/><path class="a" d="M143.9,30h-3.3a24.8,24.8,0,0,0,.9,7.5,29.8,29.8,0,0,0,29,21.8C151.1,58.3,142.8,38.6,143.9,30Z"/></svg>